<svg width="100%" viewBox="0 0 680 380" xmlns="http://www.w3.org/2000/svg" role="img">
<title style="fill:rgb(0, 0, 0);stroke:none;color:rgb(0, 0, 0);stroke-width:1px;stroke-linecap:butt;stroke-linejoin:miter;opacity:1;font-family:&quot;Anthropic Sans&quot;, -apple-system, &quot;system-ui&quot;, &quot;Segoe UI&quot;, sans-serif;font-size:16px;font-weight:400;text-anchor:start;dominant-baseline:auto">BrainSync logo tipográfico</title>
<defs>
  <filter id="gr" x="-50%" y="-50%" width="200%" height="200%">
    <feGaussianBlur stdDeviation="6" result="b2"/>
    <feGaussianBlur stdDeviation="2" result="b1"/>
    <feMerge><feMergeNode in="b2"/><feMergeNode in="b1"/><feMergeNode in="SourceGraphic"/></feMerge>
  </filter>
  <filter id="gw" x="-5%" y="-300%" width="110%" height="700%">
    <feGaussianBlur stdDeviation="3.5" result="b2"/>
    <feGaussianBlur stdDeviation="1" result="b1"/>
    <feMerge><feMergeNode in="b2"/><feMergeNode in="b1"/><feMergeNode in="SourceGraphic"/></feMerge>
  </filter>
  <filter id="gt" x="-10%" y="-40%" width="120%" height="180%">
    <feGaussianBlur stdDeviation="4" result="b2"/>
    <feGaussianBlur stdDeviation="1.5" result="b1"/>
    <feMerge><feMergeNode in="b2"/><feMergeNode in="b1"/><feMergeNode in="SourceGraphic"/></feMerge>
  </filter>
</defs>

<rect width="680" height="380" rx="16" fill="#000" style="fill:rgb(0, 0, 0);stroke:none;color:rgb(0, 0, 0);stroke-width:1px;stroke-linecap:butt;stroke-linejoin:miter;opacity:1;font-family:&quot;Anthropic Sans&quot;, -apple-system, &quot;system-ui&quot;, &quot;Segoe UI&quot;, sans-serif;font-size:16px;font-weight:400;text-anchor:start;dominant-baseline:auto"/>

<!-- CAMADA 1: Arcos cx=340 cy=190 r=195 interrompidos em y=190 -->
<path d="M 145,190 A 195,195 0 0,1 535,190" fill="none" stroke="#00ff66" stroke-width="22" opacity="0.12" style="fill:none;stroke:rgb(0, 255, 102);color:rgb(0, 0, 0);stroke-width:22px;stroke-linecap:butt;stroke-linejoin:miter;opacity:0.12;font-family:&quot;Anthropic Sans&quot;, -apple-system, &quot;system-ui&quot;, &quot;Segoe UI&quot;, sans-serif;font-size:16px;font-weight:400;text-anchor:start;dominant-baseline:auto"/>
<path d="M 145,190 A 195,195 0 0,0 535,190" fill="none" stroke="#00ff66" stroke-width="22" opacity="0.12" style="fill:none;stroke:rgb(0, 255, 102);color:rgb(0, 0, 0);stroke-width:22px;stroke-linecap:butt;stroke-linejoin:miter;opacity:0.12;font-family:&quot;Anthropic Sans&quot;, -apple-system, &quot;system-ui&quot;, &quot;Segoe UI&quot;, sans-serif;font-size:16px;font-weight:400;text-anchor:start;dominant-baseline:auto"/>
<path d="M 145,190 A 195,195 0 0,1 535,190" fill="none" stroke="#00dd55" stroke-width="4.5" filter="url(#gr)" style="fill:none;stroke:rgb(0, 221, 85);color:rgb(0, 0, 0);stroke-width:4.5px;stroke-linecap:butt;stroke-linejoin:miter;opacity:1;font-family:&quot;Anthropic Sans&quot;, -apple-system, &quot;system-ui&quot;, &quot;Segoe UI&quot;, sans-serif;font-size:16px;font-weight:400;text-anchor:start;dominant-baseline:auto"/>
<path d="M 145,190 A 195,195 0 0,1 535,190" fill="none" stroke="#ddfff0" stroke-width="1.5" style="fill:none;stroke:rgb(221, 255, 240);color:rgb(0, 0, 0);stroke-width:1.5px;stroke-linecap:butt;stroke-linejoin:miter;opacity:1;font-family:&quot;Anthropic Sans&quot;, -apple-system, &quot;system-ui&quot;, &quot;Segoe UI&quot;, sans-serif;font-size:16px;font-weight:400;text-anchor:start;dominant-baseline:auto"/>
<path d="M 145,190 A 195,195 0 0,0 535,190" fill="none" stroke="#00dd55" stroke-width="4.5" filter="url(#gr)" style="fill:none;stroke:rgb(0, 221, 85);color:rgb(0, 0, 0);stroke-width:4.5px;stroke-linecap:butt;stroke-linejoin:miter;opacity:1;font-family:&quot;Anthropic Sans&quot;, -apple-system, &quot;system-ui&quot;, &quot;Segoe UI&quot;, sans-serif;font-size:16px;font-weight:400;text-anchor:start;dominant-baseline:auto"/>
<path d="M 145,190 A 195,195 0 0,0 535,190" fill="none" stroke="#ddfff0" stroke-width="1.5" style="fill:none;stroke:rgb(221, 255, 240);color:rgb(0, 0, 0);stroke-width:1.5px;stroke-linecap:butt;stroke-linejoin:miter;opacity:1;font-family:&quot;Anthropic Sans&quot;, -apple-system, &quot;system-ui&quot;, &quot;Segoe UI&quot;, sans-serif;font-size:16px;font-weight:400;text-anchor:start;dominant-baseline:auto"/>

<!-- CAMADA 2: Texto centrado em x=340 cy=190 -->
<text x="340" y="184" text-anchor="middle" font-family="system-ui,-apple-system,sans-serif" font-weight="700" font-size="82" fill="#00ff55" opacity="0.7" filter="url(#gt)" letter-spacing="-0.5" style="fill:rgb(0, 255, 85);stroke:none;color:rgb(0, 0, 0);stroke-width:1px;stroke-linecap:butt;stroke-linejoin:miter;opacity:0.7;font-family:system-ui, -apple-system, sans-serif;font-size:82px;font-weight:700;text-anchor:middle;dominant-baseline:auto">BrainSync</text>
<text x="340" y="184" text-anchor="middle" font-family="system-ui,-apple-system,sans-serif" font-weight="700" font-size="82" fill="#aaffcc" opacity="1" letter-spacing="-0.5" style="fill:rgb(170, 255, 204);stroke:none;color:rgb(0, 0, 0);stroke-width:1px;stroke-linecap:butt;stroke-linejoin:miter;opacity:1;font-family:system-ui, -apple-system, sans-serif;font-size:82px;font-weight:700;text-anchor:middle;dominant-baseline:auto">BrainSync</text>

<!-- CAMADA 3: Onda matematicamente centrada em x=340 y=190 -->
<path d="&#10;  M 80,190 L 130,190&#10;  C 135.9,179.3 140.3,179.3 146.2,190&#10;  C 152.1,200.7 156.5,200.7 162.4,190&#10;  C 168.3,173.1 172.7,173.1 178.6,190&#10;  C 184.5,206.9 188.9,206.9 194.8,190&#10;  C 200.7,167.3 205.1,167.3 211.0,190&#10;  C 216.9,212.7 221.3,212.7 227.2,190&#10;  C 233.1,162.4 237.5,162.4 243.4,190&#10;  C 249.3,217.6 253.7,217.6 259.6,190&#10;  C 265.5,158.5 269.9,158.5 275.8,190&#10;  C 281.7,221.5 286.1,221.5 292.0,190&#10;  C 297.9,156.1 302.3,156.1 308.2,190&#10;  C 314.1,223.9 318.5,223.9 324.4,190&#10;  C 330.3,155.3 334.7,155.3 340.6,190&#10;  C 346.5,224.7 350.9,224.7 356.8,190&#10;  C 362.7,156.1 367.1,156.1 373.0,190&#10;  C 378.9,223.9 383.3,223.9 389.2,190&#10;  C 395.1,158.5 399.5,158.5 405.4,190&#10;  C 411.3,221.5 415.7,221.5 421.6,190&#10;  C 427.5,162.4 431.9,162.4 437.8,190&#10;  C 443.7,217.6 448.1,217.6 454.0,190&#10;  C 459.9,167.3 464.3,167.3 470.2,190&#10;  C 476.1,212.7 480.5,212.7 486.4,190&#10;  C 492.3,173.1 496.7,173.1 502.6,190&#10;  C 508.5,206.9 512.9,206.9 518.8,190&#10;  C 524.7,179.3 529.1,179.3 535.0,190&#10;  C 540.9,200.7 545.3,200.7 551.2,190&#10;  L 600,190&#10;" fill="none" stroke="#00cc44" stroke-width="3" stroke-linecap="round" stroke-linejoin="round" filter="url(#gw)" style="fill:none;stroke:rgb(0, 204, 68);color:rgb(0, 0, 0);stroke-width:3px;stroke-linecap:round;stroke-linejoin:round;opacity:1;font-family:&quot;Anthropic Sans&quot;, -apple-system, &quot;system-ui&quot;, &quot;Segoe UI&quot;, sans-serif;font-size:16px;font-weight:400;text-anchor:start;dominant-baseline:auto"/>
<path d="&#10;  M 80,190 L 130,190&#10;  C 135.9,179.3 140.3,179.3 146.2,190&#10;  C 152.1,200.7 156.5,200.7 162.4,190&#10;  C 168.3,173.1 172.7,173.1 178.6,190&#10;  C 184.5,206.9 188.9,206.9 194.8,190&#10;  C 200.7,167.3 205.1,167.3 211.0,190&#10;  C 216.9,212.7 221.3,212.7 227.2,190&#10;  C 233.1,162.4 237.5,162.4 243.4,190&#10;  C 249.3,217.6 253.7,217.6 259.6,190&#10;  C 265.5,158.5 269.9,158.5 275.8,190&#10;  C 281.7,221.5 286.1,221.5 292.0,190&#10;  C 297.9,156.1 302.3,156.1 308.2,190&#10;  C 314.1,223.9 318.5,223.9 324.4,190&#10;  C 330.3,155.3 334.7,155.3 340.6,190&#10;  C 346.5,224.7 350.9,224.7 356.8,190&#10;  C 362.7,156.1 367.1,156.1 373.0,190&#10;  C 378.9,223.9 383.3,223.9 389.2,190&#10;  C 395.1,158.5 399.5,158.5 405.4,190&#10;  C 411.3,221.5 415.7,221.5 421.6,190&#10;  C 427.5,162.4 431.9,162.4 437.8,190&#10;  C 443.7,217.6 448.1,217.6 454.0,190&#10;  C 459.9,167.3 464.3,167.3 470.2,190&#10;  C 476.1,212.7 480.5,212.7 486.4,190&#10;  C 492.3,173.1 496.7,173.1 502.6,190&#10;  C 508.5,206.9 512.9,206.9 518.8,190&#10;  C 524.7,179.3 529.1,179.3 535.0,190&#10;  C 540.9,200.7 545.3,200.7 551.2,190&#10;  L 600,190&#10;" fill="none" stroke="#e8fff4" stroke-width="1.1" stroke-linecap="round" stroke-linejoin="round" style="fill:none;stroke:rgb(232, 255, 244);color:rgb(0, 0, 0);stroke-width:1.1px;stroke-linecap:round;stroke-linejoin:round;opacity:1;font-family:&quot;Anthropic Sans&quot;, -apple-system, &quot;system-ui&quot;, &quot;Segoe UI&quot;, sans-serif;font-size:16px;font-weight:400;text-anchor:start;dominant-baseline:auto"/>

</svg>